<svg width="20" height="20" viewBox="0 0 20 20" fill="none" xmlns="http://www.w3.org/2000/svg">
<path d="M9.94964 18.4166C5.29096 18.4166 1.5043 14.6299 1.5043 9.97122C1.5043 5.31253 5.29096 1.52588 9.94964 1.52588C14.6083 1.52588 18.395 5.31253 18.395 9.97122C18.395 14.6299 14.6083 18.4166 9.94964 18.4166ZM9.94964 2.7043C5.94302 2.7043 2.68272 5.96459 2.68272 9.97122C2.68272 13.9778 5.94302 17.2381 9.94964 17.2381C13.9563 17.2381 17.2166 13.9778 17.2166 9.97122C17.2166 5.96459 13.9563 2.7043 9.94964 2.7043Z" fill="#868686"/>
<path d="M13.0921 10.5604H6.8072C6.4851 10.5604 6.21799 10.2933 6.21799 9.97117C6.21799 9.64907 6.4851 9.38196 6.8072 9.38196H13.0921C13.4142 9.38196 13.6813 9.64907 13.6813 9.97117C13.6813 10.2933 13.4142 10.5604 13.0921 10.5604Z" fill="#868686"/>
<path d="M9.94962 13.7028C9.62752 13.7028 9.36041 13.4357 9.36041 13.1136V6.82871C9.36041 6.50661 9.62752 6.2395 9.94962 6.2395C10.2717 6.2395 10.5388 6.50661 10.5388 6.82871V13.1136C10.5388 13.4357 10.2717 13.7028 9.94962 13.7028Z" fill="#868686"/>
</svg>
